inDegrees=yes
name=ik_iyer
DataType=double
version=3
OpenSimVersion=4.5
endheader
time	gndpitch	gndroll	gndyaw	spine_tx	spine_ty	spine_tz	pitch2	roll2	yaw2	aux7jnt_r3	aux7jnt_r1	aux7jnt_r2	aux6jnt_r3	aux6jnt_r1	aux6jnt_r2	aux5jnt_r3	aux5jnt_r1	aux5jnt_r2	aux4jnt_r3	aux4jnt_r1	aux4jnt_r2	aux3jnt_r3	aux3jnt_r1	aux3jnt_r2	pitch1	roll1	yaw1	aux1jnt_r3	aux1jnt_r1	aux1jnt_r2
0	4.21296440140691e-09	8.002416233845703e-10	4.440363815649541e-10	-3.97872216927308e-17	8.44526185968539e-17	-7.30666612219483e-19	1.19195223573577e-06	-7.41742501311171e-34	-1.94073162038987e-33	1.277095802324484e-05	0	0	1.502461967032837e-05	0	0	1.502461967032837e-05	0	0	1.126846475274626e-05	0	0	7.512309835164213e-06	0	0	1.57416137518302e-06	-1.88940466950217e-33	1.27484214121148e-34	5.014717369767992e-05	0	0
0.025	4.21296440140691e-09	8.002416233845703e-10	4.440363815649541e-10	-3.97872216927308e-17	8.44526185968539e-17	-7.30666612219483e-19	-0.001192474699655468	-0.0002285934945069358	7.742420026209191e-05	-0.0127765558687345	-0.001794348041038447	0.0008339829208847321	-0.01503120535463629	-0.002056299891938413	0.0009715008134192706	-0.01503120535463629	-0.002829045470031	0.0009715008134192706	-0.01127340401597642	-0.002829045470031	0.0009715008134192706	-0.007515602677318145	-0.002567101123410548	0.0004169914604423661	0.001456598262060585	0.0001392909767114825	0.0001267277836575224	0.04640203171906478	0.00399039254491309	0.0008059688930031021
0.05	4.21296440140691e-09	8.002416233845703e-10	4.440363815649541e-10	-3.97872216927308e-17	8.44526185968539e-17	-7.30666612219483e-19	-0.002493371318011666	-0.000264404744507251	0.000211749846709421	-0.0267147789007834	-0.002075448981480861	0.002280885757396103	-0.03142907461031804	-0.002378437972309716	0.002656987706991356	-0.03142907461031804	-0.003272241173425451	0.002656987706991356	-0.02357180595773933	-0.003272241173425451	0.002656987706991356	-0.01571453730515902	-0.002969260862490688	0.001140442878698052	0.002824582643599428	-4.407069022520615e-05	0.0002977285750713462	0.08998114087820849	-0.001262532275064033	0.001893507194239108
0.07500000000000001	4.21296440140691e-09	8.002416233845703e-10	4.440363815649541e-10	-3.97872216927308e-17	8.44526185968539e-17	-7.30666612219483e-19	-0.003713002336749391	-0.0003741102513297938	0.0003531021697875946	-0.03978229627003776	-0.002936583991831319	0.00380347718069187	-0.04680258677357399	-0.003365287673833462	0.004430643700651761	-0.04680258677357399	-0.004629943271570592	0.004430643700651761	-0.03510194008018208	-0.004629943271570592	0.004430643700651761	-0.02340129338678699	-0.004201251870878967	0.001901738590345935	0.004096680881667259	-8.854088392325947e-05	0.0004896308589422264	0.1305056590861909	-0.002536509481582284	0.003113975720021199
0.1	4.21296440140691e-09	8.002416233845703e-10	4.440363815649541e-10	-3.97872216927308e-17	8.44526185968539e-17	-7.30666612219483e-19	-0.004885312382468376	-0.0004481169792378728	0.0005080581523669355	-0.05234280157797883	-0.003517500905202111	0.005472601853891668	-0.06157961562088969	-0.004031011022296376	0.006374995242037655	-0.06157961562088969	-0.00554584159488585	0.006374995242037655	-0.04618471171566885	-0.00554584159488585	0.006374995242037655	-0.03078980781044485	-0.0050323461886019	0.002736300926945834	0.005216849110973417	-0.0001258701896342219	0.000692971042811382	0.1661902284426247	-0.003605915316274565	0.00440718750173226
0.125	4.21296440140691e-09	8.002416233845703e-10	4.440363815649541e-10	-3.97872216927308e-17	8.44526185968539e-17	-7.30666612219483e-19	-0.005991136840808884	-0.0005250342911563698	0.0006459703600600341	-0.06419095900813827	-0.004121264491129505	0.006958137712295352	-0.0755185901956099	-0.004722916365128894	0.008105485469910427	-0.0755185901956099	-0.006497760954270231	0.008105485469910427	-0.05663894264670901	-0.006497760954270231	0.008105485469910427	-0.03775929509780495	-0.005896126316123773	0.003479068856147676	0.006245578417344358	-0.0001337214351890459	0.0008867629412847962	0.1989618794516194	-0.00383083693337925	0.005639673680987358
0.15	4.21296440140691e-09	8.002416233845703e-10	4.440363815649541e-10	-3.97872216927308e-17	8.44526185968539e-17	-7.30666612219483e-19	-0.007043141665647732	-0.0005747395596217826	0.0007573366464755339	-0.07546247564711979	-0.004511426736526524	0.008157731386088194	-0.08877916550239692	-0.005170037305270409	0.009502883666777347	-0.08877916550239692	-0.007112907351552752	0.009502883666777347	-0.06658437412679689	-0.007112907351552752	0.009502883666777347	-0.04438958275119846	-0.006454315650390908	0.004078865693044097	0.00718047425513476	-0.0001907942834062921	0.001047905548651657	0.2287443304191266	-0.005465853597204373	0.006664515472791742
0.175	4.21296440140691e-09	8.002416233845703e-10	4.440363815649541e-10	-3.97872216927308e-17	8.44526185968539e-17	-7.30666612219483e-19	-0.008022155444509009	-0.0006866457943775798	0.0008289357393736754	-0.08595194284126204	-0.005389836393578442	0.008928968549994976	-0.1011196848939882	-0.006176683530841982	0.01040129239112037	-0.1011196848939882	-0.008497845392711936	0.01040129239112037	-0.07583976367049032	-0.008497845392711936	0.01040129239112037	-0.05055984244699408	-0.007711020796693046	0.004464484274997488	0.008046931191133056	-8.622313233806168e-05	0.001144494383870082	0.2563465617787321	-0.002470110789686174	0.007278805365273032
0.2	4.21296440140691e-09	8.002416233845703e-10	4.440363815649541e-10	-3.97872216927308e-17	8.44526185968539e-17	-7.30666612219483e-19	-0.008967186742953543	-0.0006510859302686099	0.0008758275674496262	-0.09607731085600381	-0.005110708710435308	0.0094340688107926	-0.1130318533597681	-0.005856806778082499	0.01098968011697923	-0.1130318533597681	-0.008057760810739242	0.01098968011697923	-0.08477389001982527	-0.008057760810739242	0.01098968011697923	-0.05651592667988405	-0.007311684116974167	0.0047170344053963	0.008826304802634724	-0.000193875262936682	0.001204254552488851	0.2811746286410053	-0.005554117159127805	0.007658870695521204
